<svg xmlns="http://www.w3.org/2000/svg" xmlns:xlink="http://www.w3.org/1999/xlink" width="500" zoomAndPan="magnify" viewBox="0 0 375 374.999991" height="500" preserveAspectRatio="xMidYMid meet" version="1.0"><defs><g/><clipPath id="bc17778adc"><path d="M 66.710938 66.710938 L 308.210938 66.710938 L 308.210938 308.210938 L 66.710938 308.210938 Z M 66.710938 66.710938 " clip-rule="nonzero"/></clipPath><clipPath id="b3efe062f2"><path d="M 154.734375 136.4375 L 218.902344 136.4375 L 218.902344 186.253906 L 154.734375 186.253906 Z M 154.734375 136.4375 " clip-rule="nonzero"/></clipPath><clipPath id="4af4e19119"><path d="M 130.210938 152.371094 L 242.503906 152.371094 L 242.503906 233 L 130.210938 233 Z M 130.210938 152.371094 " clip-rule="nonzero"/></clipPath><clipPath id="5a106c38a9"><path d="M 81.3125 177.460938 L 102.3125 177.460938 L 102.3125 197.710938 L 81.3125 197.710938 Z M 81.3125 177.460938 " clip-rule="nonzero"/></clipPath><clipPath id="f521e5c801"><path d="M 271.695312 177.460938 L 292.695312 177.460938 L 292.695312 197.710938 L 271.695312 197.710938 Z M 271.695312 177.460938 " clip-rule="nonzero"/></clipPath></defs><g clip-path="url(#bc17778adc)"><path fill="#000000" d="M 187.5 308.277344 C 120.828125 308.277344 66.703125 254.148438 66.703125 187.488281 C 66.703125 120.828125 120.828125 66.703125 187.5 66.703125 C 254.160156 66.703125 308.277344 120.828125 308.277344 187.488281 C 308.277344 254.148438 254.160156 308.277344 187.5 308.277344 Z M 187.5 305.65625 C 252.710938 305.65625 305.660156 252.707031 305.660156 187.488281 C 305.660156 122.269531 252.710938 69.320312 187.5 69.320312 C 122.277344 69.320312 69.320312 122.269531 69.320312 187.488281 C 69.320312 252.707031 122.277344 305.65625 187.5 305.65625 Z M 261.558594 187.488281 C 261.558594 189.3125 260.074219 190.796875 258.25 190.796875 C 256.4375 190.796875 254.953125 189.3125 254.953125 187.488281 C 254.953125 185.664062 256.4375 184.191406 258.25 184.191406 C 260.074219 184.191406 261.558594 185.664062 261.558594 187.488281 Z M 119.914062 157.03125 C 119.617188 157.683594 118.847656 157.972656 118.183594 157.675781 C 117.53125 157.378906 117.234375 156.601562 117.53125 155.949219 C 129.574219 129.3125 156.386719 110.757812 187.5 110.757812 C 218.601562 110.757812 245.414062 129.3125 257.457031 155.949219 C 257.753906 156.601562 257.457031 157.378906 256.800781 157.675781 C 256.140625 157.972656 255.371094 157.683594 255.066406 157.03125 C 243.441406 131.292969 217.546875 113.375 187.5 113.375 C 157.441406 113.375 131.546875 131.292969 119.914062 157.03125 Z M 255.066406 217.957031 C 255.371094 217.292969 256.140625 217.003906 256.800781 217.300781 C 257.457031 217.597656 257.753906 218.375 257.457031 219.03125 C 245.414062 245.664062 218.601562 264.21875 187.5 264.21875 C 156.386719 264.21875 129.574219 245.664062 117.53125 219.03125 C 117.234375 218.375 117.53125 217.597656 118.183594 217.300781 C 118.847656 217.003906 119.617188 217.292969 119.914062 217.957031 C 131.546875 243.683594 157.441406 261.601562 187.5 261.601562 C 217.546875 261.601562 243.441406 243.683594 255.066406 217.957031 Z M 120.035156 187.488281 C 120.035156 189.3125 118.550781 190.796875 116.738281 190.796875 C 114.902344 190.796875 113.429688 189.3125 113.429688 187.488281 C 113.429688 185.664062 114.902344 184.191406 116.738281 184.191406 C 118.550781 184.191406 120.035156 185.664062 120.035156 187.488281 Z M 120.035156 187.488281 " fill-opacity="1" fill-rule="evenodd"/></g><g clip-path="url(#b3efe062f2)"><path fill="#009444" d="M 217.980469 144.179688 L 215.183594 144.179688 L 215.183594 141.132812 C 215.183594 140.570312 214.730469 140.117188 214.171875 140.117188 L 210.003906 140.117188 L 210.003906 137.578125 C 210.003906 137.015625 209.550781 136.5625 208.992188 136.5625 C 194.71875 136.5625 188.878906 142.335938 186.84375 145.234375 C 185.800781 143.761719 183.765625 141.542969 180.132812 139.714844 C 177.195312 138.238281 173.714844 137.269531 169.789062 136.832031 C 168.175781 136.65625 166.46875 136.5625 164.707031 136.5625 C 164.148438 136.5625 163.691406 137.015625 163.691406 137.578125 L 163.691406 140.117188 L 159.53125 140.117188 C 158.96875 140.117188 158.515625 140.574219 158.515625 141.132812 L 158.515625 144.183594 L 155.722656 144.183594 C 155.160156 144.183594 154.707031 144.636719 154.707031 145.199219 L 154.707031 185.230469 C 154.707031 185.542969 154.851562 185.839844 155.101562 186.03125 C 155.347656 186.226562 155.671875 186.292969 155.972656 186.214844 C 162.699219 184.496094 181.1875 181.105469 186.097656 185.917969 C 186.113281 185.933594 186.132812 185.945312 186.148438 185.960938 C 186.15625 185.96875 186.164062 185.96875 186.171875 185.976562 C 186.175781 185.980469 186.175781 185.980469 186.179688 185.984375 C 186.195312 186 186.210938 186.011719 186.230469 186.023438 C 186.230469 186.027344 186.230469 186.027344 186.230469 186.027344 C 186.242188 186.035156 186.253906 186.046875 186.265625 186.058594 C 186.328125 186.101562 186.394531 186.140625 186.464844 186.167969 C 186.46875 186.167969 186.472656 186.171875 186.476562 186.171875 C 186.480469 186.175781 186.488281 186.175781 186.496094 186.175781 C 186.496094 186.179688 186.5 186.179688 186.503906 186.179688 C 186.511719 186.183594 186.515625 186.1875 186.519531 186.191406 C 186.523438 186.191406 186.527344 186.191406 186.53125 186.191406 C 186.535156 186.195312 186.535156 186.195312 186.539062 186.195312 C 186.558594 186.199219 186.578125 186.207031 186.597656 186.210938 C 186.605469 186.214844 186.613281 186.214844 186.621094 186.214844 C 186.691406 186.230469 186.765625 186.242188 186.839844 186.242188 C 186.84375 186.242188 186.84375 186.242188 186.84375 186.242188 C 186.847656 186.242188 186.847656 186.246094 186.847656 186.246094 C 186.847656 186.246094 186.847656 186.246094 186.851562 186.246094 C 186.902344 186.246094 186.953125 186.238281 187.003906 186.234375 C 187.011719 186.230469 187.015625 186.230469 187.019531 186.226562 C 187.082031 186.214844 187.144531 186.199219 187.207031 186.175781 C 187.207031 186.175781 187.210938 186.175781 187.214844 186.175781 C 187.21875 186.171875 187.222656 186.171875 187.226562 186.171875 C 187.226562 186.167969 187.230469 186.167969 187.234375 186.167969 C 187.261719 186.15625 187.289062 186.136719 187.316406 186.125 C 187.335938 186.113281 187.351562 186.105469 187.367188 186.09375 C 187.386719 186.085938 187.40625 186.074219 187.425781 186.0625 C 187.429688 186.058594 187.429688 186.058594 187.433594 186.058594 C 187.46875 186.035156 187.5 186.003906 187.53125 185.972656 C 187.539062 185.96875 187.546875 185.964844 187.550781 185.960938 C 187.582031 185.929688 187.617188 185.902344 187.652344 185.871094 C 192.632812 181.125 211.023438 184.5 217.726562 186.210938 C 218.03125 186.289062 218.355469 186.222656 218.601562 186.027344 C 218.847656 185.835938 218.992188 185.542969 218.992188 185.226562 L 218.992188 145.195312 C 218.996094 144.632812 218.542969 144.179688 217.980469 144.179688 Z M 213.15625 142.144531 L 213.15625 178.144531 C 209.484375 177.394531 198.738281 175.894531 189.796875 181.621094 C 195.636719 173.652344 208.753906 174.632812 208.90625 174.644531 C 209.1875 174.664062 209.46875 174.570312 209.679688 174.378906 C 209.886719 174.1875 210.007812 173.914062 210.007812 173.632812 L 210.007812 142.144531 Z M 207.976562 138.601562 L 207.976562 172.578125 C 204.429688 172.515625 193.210938 172.980469 187.863281 180.820312 L 187.863281 147.449219 C 188.480469 146.203125 192.71875 138.910156 207.976562 138.601562 Z M 170.691406 138.996094 C 170.71875 139 170.746094 139 170.773438 139.003906 C 171.425781 139.097656 172.058594 139.210938 172.679688 139.335938 C 172.804688 139.363281 172.933594 139.390625 173.058594 139.417969 C 173.675781 139.550781 174.28125 139.695312 174.867188 139.859375 C 174.9375 139.878906 175.003906 139.902344 175.074219 139.921875 C 175.628906 140.082031 176.164062 140.257812 176.6875 140.449219 C 176.769531 140.476562 176.855469 140.503906 176.9375 140.535156 C 177.476562 140.738281 178 140.957031 178.507812 141.191406 C 178.558594 141.214844 178.613281 141.238281 178.664062 141.261719 L 178.664062 149.730469 L 175.285156 147.214844 C 174.925781 146.949219 174.433594 146.949219 174.074219 147.214844 L 170.691406 149.730469 Z M 168.664062 138.769531 L 168.664062 151.75 C 168.664062 152.132812 168.878906 152.480469 169.222656 152.65625 C 169.367188 152.726562 169.523438 152.761719 169.675781 152.761719 C 169.890625 152.761719 170.105469 152.695312 170.28125 152.5625 L 174.679688 149.292969 L 179.070312 152.5625 C 179.378906 152.792969 179.789062 152.828125 180.132812 152.65625 C 180.476562 152.484375 180.691406 152.132812 180.691406 151.75 L 180.691406 142.347656 C 184.128906 144.457031 185.511719 146.824219 185.835938 147.453125 L 185.835938 180.820312 C 180.730469 173.332031 170.265625 172.574219 166.246094 172.574219 C 166.054688 172.574219 165.882812 172.578125 165.722656 172.578125 L 165.722656 141.15625 C 165.722656 141.148438 165.726562 141.140625 165.726562 141.132812 C 165.726562 141.125 165.722656 141.117188 165.722656 141.109375 L 165.722656 138.601562 C 166.730469 138.625 167.707031 138.6875 168.664062 138.769531 Z M 160.546875 142.144531 L 163.695312 142.144531 L 163.695312 173.632812 C 163.695312 173.917969 163.8125 174.1875 164.023438 174.382812 C 164.230469 174.574219 164.511719 174.667969 164.792969 174.644531 C 164.945312 174.632812 178.082031 173.648438 183.917969 181.632812 C 174.972656 175.890625 164.21875 177.390625 160.546875 178.144531 Z M 156.738281 183.941406 L 156.738281 146.210938 L 158.515625 146.210938 L 158.515625 179.421875 C 158.515625 179.738281 158.664062 180.035156 158.914062 180.226562 C 159.167969 180.417969 159.492188 180.480469 159.796875 180.398438 C 159.925781 180.363281 170.101562 177.695312 179.398438 181.578125 C 171.25 180.8125 160.429688 183.082031 156.738281 183.941406 Z M 216.964844 183.941406 C 213.273438 183.082031 202.464844 180.808594 194.316406 181.570312 C 203.609375 177.699219 213.777344 180.363281 213.902344 180.398438 C 214.210938 180.480469 214.535156 180.417969 214.785156 180.226562 C 215.039062 180.035156 215.183594 179.738281 215.183594 179.421875 L 215.183594 146.207031 L 216.964844 146.207031 Z M 216.964844 183.941406 " fill-opacity="1" fill-rule="nonzero"/></g><g clip-path="url(#4af4e19119)"><path fill="#000000" d="M 175.351562 212.558594 L 173.585938 212.558594 C 173.6875 211.882812 173.792969 211.207031 173.898438 210.582031 C 174.625 206.890625 174.3125 203.199219 173.011719 199.972656 C 172.285156 198.152344 171.296875 196.488281 170.152344 194.875 C 166.40625 189.9375 162.089844 187.855469 159.128906 186.972656 C 158.191406 186.710938 157.203125 186.503906 156.164062 186.347656 C 154.757812 185.097656 147.894531 178.960938 144.566406 176.726562 C 141.964844 175.007812 138.429688 175.476562 136.347656 177.921875 C 136.035156 178.285156 136.035156 178.859375 136.347656 179.273438 L 145.136719 189.988281 L 148.777344 196.4375 C 149.039062 196.957031 149.714844 197.113281 150.183594 196.851562 C 150.703125 196.59375 150.859375 195.917969 150.597656 195.449219 L 146.90625 188.949219 C 146.851562 188.894531 146.851562 188.84375 146.800781 188.792969 L 138.585938 178.648438 C 139.988281 177.558594 141.964844 177.453125 143.421875 178.441406 C 146.957031 180.78125 154.964844 188.011719 155.019531 188.0625 C 155.175781 188.21875 155.382812 188.324219 155.589844 188.324219 C 156.578125 188.425781 157.566406 188.636719 158.503906 188.949219 C 161.15625 189.726562 165.003906 191.601562 168.4375 196.125 C 169.527344 197.527344 170.359375 199.089844 171.035156 200.753906 C 172.234375 203.613281 172.492188 206.890625 171.816406 210.167969 C 171.660156 210.945312 171.558594 211.726562 171.453125 212.558594 L 155.332031 212.558594 C 154.34375 210.113281 152.992188 208.085938 151.429688 206.890625 L 136.816406 192.691406 C 135.464844 191.390625 134.527344 189.726562 134.164062 187.855469 C 132.65625 179.898438 132.292969 176.671875 132.292969 175.425781 L 133.902344 156.910156 C 134.683594 157.273438 135.410156 157.898438 135.878906 158.730469 C 136.347656 159.617188 136.191406 161.4375 136.089844 163.046875 C 136.035156 163.777344 135.984375 164.554688 135.933594 165.285156 C 135.933594 165.335938 135.933594 165.335938 135.933594 165.386719 L 136.816406 174.644531 C 136.867188 175.21875 137.386719 175.632812 137.960938 175.582031 C 138.53125 175.53125 138.949219 175.007812 138.894531 174.4375 L 138.011719 165.230469 C 138.011719 164.609375 138.0625 163.933594 138.117188 163.203125 C 138.273438 161.488281 138.375 159.773438 137.960938 158.417969 C 138.117188 158.210938 138.21875 158.003906 138.21875 157.742188 L 138.21875 154.882812 C 138.21875 154.882812 138.21875 154.832031 138.273438 154.777344 C 138.324219 154.726562 138.375 154.726562 138.429688 154.726562 C 138.480469 154.726562 138.585938 154.777344 138.636719 154.832031 C 139.3125 155.089844 139.882812 155.714844 140.195312 156.441406 C 140.300781 156.652344 140.351562 156.808594 140.457031 157.015625 C 140.664062 157.484375 140.769531 158.003906 140.714844 158.523438 C 140.714844 159.71875 140.664062 161.019531 140.664062 162.371094 C 140.664062 163.984375 140.613281 165.699219 140.613281 167.105469 C 140.613281 167.15625 140.613281 167.15625 140.613281 167.207031 L 141.082031 172.410156 C 141.132812 172.929688 141.601562 173.34375 142.121094 173.34375 C 142.171875 173.34375 142.171875 173.34375 142.226562 173.34375 C 142.796875 173.292969 143.214844 172.773438 143.160156 172.203125 L 142.691406 167.050781 C 142.691406 165.648438 142.691406 164.035156 142.746094 162.425781 C 142.746094 161.4375 142.796875 160.394531 142.796875 159.460938 C 143.058594 159.71875 143.472656 159.824219 143.835938 159.667969 C 143.835938 159.667969 144.097656 159.617188 144.410156 159.875 C 144.929688 160.292969 146.175781 162.007812 145.605469 168.613281 C 145.605469 168.714844 145.605469 168.820312 145.605469 168.925781 L 146.644531 173.710938 C 146.75 174.175781 147.164062 174.542969 147.6875 174.542969 C 147.738281 174.542969 147.839844 174.542969 147.894531 174.542969 C 148.464844 174.4375 148.828125 173.867188 148.671875 173.292969 L 147.6875 168.664062 C 147.789062 167 147.839844 165.597656 147.789062 164.296875 C 148.207031 164.554688 149.871094 165.648438 150.546875 168.039062 L 151.273438 174.488281 C 151.273438 174.59375 151.324219 174.699219 151.378906 174.800781 L 154.289062 181.457031 C 154.445312 181.875 154.863281 182.082031 155.226562 182.082031 C 155.382812 182.082031 155.488281 182.03125 155.644531 181.980469 C 156.164062 181.769531 156.421875 181.144531 156.164062 180.625 L 153.300781 174.074219 L 152.574219 167.675781 C 152.574219 167.625 152.574219 167.574219 152.523438 167.519531 C 151.535156 163.828125 148.726562 162.371094 148.570312 162.320312 C 148.207031 162.164062 147.839844 162.164062 147.53125 162.371094 C 147.21875 160.34375 146.59375 158.992188 145.605469 158.210938 C 144.410156 157.273438 143.214844 157.640625 143.109375 157.640625 C 142.953125 157.691406 142.796875 157.796875 142.691406 157.898438 C 142.746094 157.328125 142.589844 156.808594 142.382812 156.234375 C 142.277344 156.027344 142.226562 155.820312 142.121094 155.609375 C 141.601562 154.363281 140.613281 153.375 139.417969 152.855469 C 139.3125 152.800781 139.207031 152.800781 139.105469 152.75 C 138.429688 152.492188 137.648438 152.59375 137.078125 153.011719 C 136.503906 153.425781 136.140625 154.101562 136.140625 154.832031 L 136.140625 155.871094 C 135.566406 155.402344 134.945312 155.039062 134.269531 154.832031 C 133.746094 154.675781 133.019531 154.46875 132.394531 154.882812 C 132.03125 155.144531 131.875 155.507812 131.824219 155.976562 L 130.210938 175.269531 C 130.210938 175.320312 130.210938 175.320312 130.210938 175.375 C 130.210938 177.351562 130.835938 181.667969 132.136719 188.269531 C 132.605469 190.558594 133.695312 192.640625 135.359375 194.253906 L 150.128906 208.449219 C 150.183594 208.449219 150.183594 208.503906 150.234375 208.503906 C 151.324219 209.335938 152.367188 210.789062 153.199219 212.558594 L 146.074219 212.558594 C 145.8125 212.558594 145.554688 212.664062 145.34375 212.871094 C 145.136719 213.078125 145.035156 213.339844 145.035156 213.597656 L 145.085938 231.957031 C 145.085938 232.21875 145.1875 232.476562 145.398438 232.683594 C 145.605469 232.894531 145.867188 232.996094 146.125 232.996094 L 175.042969 232.738281 C 175.613281 232.738281 176.082031 232.269531 176.082031 231.695312 L 176.445312 213.546875 C 176.445312 213.285156 176.339844 212.976562 176.132812 212.820312 C 175.925781 212.664062 175.613281 212.558594 175.351562 212.558594 Z M 173.949219 230.707031 L 147.0625 230.96875 L 147.007812 214.691406 L 174.261719 214.640625 Z M 151.585938 221.765625 C 151.949219 220.722656 152.679688 219.945312 153.667969 219.476562 C 154.65625 219.007812 155.746094 218.957031 156.785156 219.320312 C 157.308594 219.527344 157.617188 220.097656 157.410156 220.671875 C 157.203125 221.191406 156.628906 221.503906 156.058594 221.296875 C 155.539062 221.140625 155.019531 221.140625 154.550781 221.347656 C 154.082031 221.554688 153.71875 221.972656 153.511719 222.492188 C 153.144531 223.53125 153.667969 224.675781 154.707031 225.039062 C 155.746094 225.402344 156.890625 224.882812 157.253906 223.84375 C 157.308594 223.636719 157.359375 223.480469 157.359375 223.273438 C 157.359375 223.117188 157.410156 222.960938 157.464844 222.855469 C 157.464844 222.855469 157.464844 222.804688 157.464844 222.804688 C 157.464844 222.75 157.515625 222.699219 157.515625 222.699219 C 157.671875 222.441406 157.984375 222.285156 158.347656 222.230469 C 158.347656 222.230469 158.398438 222.230469 158.398438 222.230469 L 163.289062 222.179688 C 163.859375 222.179688 164.328125 222.648438 164.328125 223.21875 C 164.328125 223.792969 163.859375 224.261719 163.289062 224.261719 L 159.28125 224.261719 C 159.28125 224.363281 159.230469 224.417969 159.230469 224.519531 C 158.605469 226.183594 157.046875 227.222656 155.382812 227.222656 C 154.914062 227.222656 154.445312 227.171875 153.976562 226.964844 C 151.949219 226.238281 150.859375 223.894531 151.585938 221.765625 Z M 242.753906 175.269531 L 241.089844 155.976562 C 241.089844 155.507812 240.882812 155.144531 240.519531 154.882812 C 239.894531 154.46875 239.164062 154.621094 238.644531 154.832031 C 237.96875 155.039062 237.34375 155.402344 236.773438 155.871094 L 236.773438 154.832031 C 236.773438 154.101562 236.410156 153.425781 235.835938 153.011719 C 235.265625 152.59375 234.484375 152.492188 233.808594 152.75 C 233.703125 152.800781 233.601562 152.800781 233.496094 152.855469 C 232.300781 153.324219 231.3125 154.3125 230.792969 155.609375 C 230.6875 155.820312 230.636719 156.027344 230.53125 156.234375 C 230.21875 156.964844 230.117188 157.742188 230.117188 158.523438 C 230.117188 159.71875 230.167969 161.070312 230.167969 162.371094 C 230.167969 163.984375 230.21875 165.597656 230.21875 167 L 229.753906 172.148438 C 229.699219 172.722656 230.117188 173.242188 230.6875 173.292969 C 230.742188 173.292969 230.742188 173.292969 230.792969 173.292969 C 231.3125 173.292969 231.78125 172.878906 231.832031 172.355469 L 232.351562 167.15625 C 232.351562 167.105469 232.351562 167.105469 232.351562 167.050781 C 232.351562 165.648438 232.351562 163.984375 232.300781 162.320312 C 232.300781 161.019531 232.25 159.667969 232.25 158.472656 C 232.25 157.953125 232.351562 157.429688 232.507812 156.964844 C 232.5625 156.753906 232.664062 156.546875 232.769531 156.390625 C 233.082031 155.664062 233.652344 155.039062 234.328125 154.777344 C 234.382812 154.726562 234.484375 154.726562 234.535156 154.675781 C 234.589844 154.675781 234.640625 154.675781 234.691406 154.675781 C 234.746094 154.726562 234.746094 154.777344 234.746094 154.777344 L 234.746094 157.640625 C 234.746094 157.898438 234.847656 158.160156 235.003906 158.316406 C 234.535156 159.667969 234.691406 161.4375 234.847656 163.101562 C 234.902344 163.828125 234.953125 164.503906 234.953125 165.128906 L 234.070312 174.488281 C 234.015625 175.0625 234.433594 175.582031 235.003906 175.632812 C 235.578125 175.6875 236.097656 175.269531 236.148438 174.699219 L 237.035156 165.441406 C 237.035156 165.386719 237.035156 165.386719 237.035156 165.335938 C 237.035156 164.609375 236.980469 163.878906 236.878906 163.101562 C 236.722656 161.488281 236.617188 159.667969 237.085938 158.785156 C 237.554688 157.953125 238.28125 157.273438 239.0625 156.964844 L 240.675781 175.476562 C 240.675781 176.777344 240.308594 179.949219 238.800781 187.90625 C 238.4375 189.78125 237.5 191.445312 236.148438 192.742188 L 221.429688 206.941406 C 219.765625 208.242188 218.570312 210.113281 217.6875 212.609375 L 201.410156 212.609375 C 201.304688 211.777344 201.199219 211 201.042969 210.21875 C 200.367188 206.941406 200.679688 203.664062 201.824219 200.804688 C 202.5 199.191406 203.386719 197.632812 204.425781 196.226562 C 207.804688 191.753906 211.707031 189.832031 214.359375 189.050781 C 215.292969 188.792969 216.28125 188.582031 217.269531 188.425781 C 217.480469 188.375 217.6875 188.324219 217.84375 188.167969 C 217.945312 188.117188 225.957031 180.835938 229.441406 178.546875 C 230.949219 177.558594 232.871094 177.660156 234.277344 178.753906 L 226.058594 188.792969 C 226.007812 188.84375 226.007812 188.894531 225.957031 188.949219 L 222.261719 195.449219 C 222.003906 195.96875 222.160156 196.59375 222.679688 196.851562 C 223.199219 197.113281 223.824219 196.957031 224.082031 196.4375 L 227.722656 189.988281 L 236.511719 179.273438 C 236.824219 178.859375 236.824219 178.339844 236.511719 177.921875 C 234.433594 175.53125 230.898438 175.007812 228.296875 176.726562 C 224.96875 178.910156 218.101562 185.097656 216.699219 186.347656 C 215.710938 186.503906 214.722656 186.710938 213.734375 186.972656 C 210.769531 187.855469 206.503906 189.9375 202.761719 194.875 C 201.566406 196.4375 200.628906 198.152344 199.902344 199.921875 C 198.546875 203.199219 198.234375 206.835938 198.964844 210.53125 C 199.070312 211.15625 199.171875 211.832031 199.277344 212.507812 L 196.78125 212.507812 C 196.519531 212.507812 196.207031 212.609375 196.050781 212.820312 C 195.84375 213.027344 195.738281 213.285156 195.738281 213.546875 L 196.105469 231.695312 C 196.105469 232.269531 196.570312 232.683594 197.144531 232.738281 L 226.058594 232.996094 C 226.320312 232.996094 226.578125 232.894531 226.789062 232.683594 C 226.996094 232.476562 227.101562 232.21875 227.101562 231.957031 L 227.152344 213.597656 C 227.152344 213.339844 227.046875 213.078125 226.839844 212.871094 C 226.632812 212.664062 226.371094 212.558594 226.113281 212.558594 L 219.871094 212.558594 C 220.546875 210.789062 221.484375 209.4375 222.730469 208.503906 C 222.785156 208.503906 222.785156 208.449219 222.835938 208.449219 L 237.554688 194.253906 C 239.21875 192.640625 240.363281 190.613281 240.777344 188.269531 C 242.027344 181.667969 242.703125 177.351562 242.703125 175.375 C 242.753906 175.320312 242.753906 175.320312 242.753906 175.269531 Z M 225.125 230.917969 L 198.234375 230.65625 L 197.925781 214.585938 L 200.523438 214.585938 C 200.523438 214.585938 200.578125 214.585938 200.578125 214.585938 C 200.628906 214.585938 200.628906 214.585938 200.679688 214.585938 L 225.175781 214.585938 Z M 216.804688 180.574219 L 219.664062 174.019531 L 220.390625 167.625 C 220.390625 167.574219 220.390625 167.519531 220.441406 167.46875 C 221.429688 163.777344 224.238281 162.320312 224.394531 162.269531 C 224.761719 162.113281 225.125 162.113281 225.4375 162.320312 C 225.746094 160.292969 226.371094 158.941406 227.359375 158.160156 C 228.554688 157.222656 229.753906 157.585938 229.855469 157.585938 L 229.230469 159.5625 L 229.285156 159.5625 C 229.230469 159.5625 228.972656 159.511719 228.609375 159.773438 C 228.089844 160.238281 226.890625 162.007812 227.414062 168.457031 C 227.414062 168.5625 227.414062 168.664062 227.414062 168.769531 L 226.371094 173.554688 C 226.269531 174.019531 225.851562 174.386719 225.332031 174.386719 C 225.28125 174.386719 225.175781 174.386719 225.125 174.386719 C 224.550781 174.28125 224.1875 173.710938 224.34375 173.136719 L 225.332031 168.507812 C 225.226562 166.84375 225.175781 165.441406 225.226562 164.140625 C 224.8125 164.398438 223.148438 165.492188 222.472656 167.882812 L 221.742188 174.332031 C 221.742188 174.4375 221.691406 174.542969 221.640625 174.644531 L 218.726562 181.300781 C 218.570312 181.71875 218.15625 181.925781 217.789062 181.925781 C 217.636719 181.925781 217.53125 181.875 217.375 181.824219 C 216.804688 181.71875 216.542969 181.09375 216.804688 180.574219 Z M 218.519531 219.476562 C 219.507812 219.945312 220.234375 220.777344 220.597656 221.765625 C 220.964844 222.804688 220.910156 223.894531 220.441406 224.882812 C 219.976562 225.871094 219.144531 226.601562 218.15625 226.964844 C 217.6875 227.121094 217.21875 227.222656 216.75 227.222656 C 216.179688 227.222656 215.554688 227.070312 215.035156 226.859375 C 214.046875 226.390625 213.316406 225.558594 212.953125 224.570312 C 212.902344 224.46875 212.902344 224.417969 212.902344 224.3125 L 208.898438 224.3125 C 208.324219 224.3125 207.859375 223.84375 207.859375 223.273438 C 207.859375 222.699219 208.324219 222.230469 208.898438 222.230469 L 213.785156 222.285156 C 213.785156 222.285156 213.839844 222.285156 213.839844 222.285156 C 213.890625 222.285156 213.941406 222.285156 213.941406 222.285156 C 213.941406 222.285156 213.941406 222.285156 213.996094 222.285156 C 214.203125 222.335938 214.359375 222.441406 214.460938 222.542969 C 214.460938 222.542969 214.460938 222.542969 214.515625 222.597656 C 214.566406 222.648438 214.566406 222.648438 214.617188 222.699219 C 214.671875 222.75 214.671875 222.804688 214.671875 222.855469 C 214.671875 222.855469 214.671875 222.855469 214.671875 222.90625 C 214.722656 223.0625 214.773438 223.167969 214.773438 223.324219 C 214.773438 223.53125 214.828125 223.738281 214.878906 223.894531 C 215.035156 224.417969 215.449219 224.78125 215.917969 225.039062 C 216.386719 225.25 216.957031 225.300781 217.425781 225.09375 C 217.945312 224.9375 218.3125 224.519531 218.570312 224.050781 C 218.777344 223.585938 218.832031 223.011719 218.621094 222.542969 C 218.46875 222.023438 218.050781 221.660156 217.582031 221.398438 C 217.113281 221.191406 216.542969 221.140625 216.074219 221.347656 C 215.554688 221.554688 214.929688 221.242188 214.722656 220.722656 C 214.515625 220.203125 214.828125 219.578125 215.347656 219.371094 C 216.386719 218.957031 217.53125 219.007812 218.519531 219.476562 Z M 218.519531 219.476562 " fill-opacity="1" fill-rule="nonzero"/></g><g clip-path="url(#5a106c38a9)"><path fill="#009444" d="M 91.871094 177.460938 L 94.585938 183.570312 C 94.691406 183.804688 94.855469 184.007812 95.066406 184.160156 C 95.273438 184.308594 95.515625 184.402344 95.773438 184.429688 L 102.425781 185.128906 L 97.453125 189.601562 C 97.261719 189.773438 97.117188 189.992188 97.039062 190.238281 C 96.960938 190.480469 96.945312 190.742188 97 190.992188 L 98.390625 197.535156 L 92.601562 194.1875 C 92.378906 194.058594 92.125 193.992188 91.871094 193.992188 C 91.613281 193.992188 91.359375 194.058594 91.136719 194.1875 L 85.347656 197.535156 L 86.738281 190.992188 C 86.792969 190.742188 86.78125 190.480469 86.699219 190.238281 C 86.621094 189.992188 86.476562 189.773438 86.289062 189.601562 L 81.316406 185.128906 L 87.96875 184.429688 C 88.222656 184.402344 88.46875 184.308594 88.675781 184.160156 C 88.882812 184.007812 89.046875 183.804688 89.152344 183.570312 Z M 91.871094 177.460938 " fill-opacity="1" fill-rule="evenodd"/></g><g clip-path="url(#f521e5c801)"><path fill="#009444" d="M 282.253906 177.460938 L 284.972656 183.570312 C 285.074219 183.804688 285.238281 184.007812 285.449219 184.160156 C 285.65625 184.308594 285.898438 184.402344 286.15625 184.429688 L 292.808594 185.128906 L 287.835938 189.601562 C 287.644531 189.773438 287.5 189.992188 287.421875 190.238281 C 287.34375 190.480469 287.328125 190.742188 287.382812 190.992188 L 288.777344 197.535156 L 282.984375 194.1875 C 282.761719 194.058594 282.507812 193.992188 282.253906 193.992188 C 281.996094 193.992188 281.742188 194.058594 281.519531 194.1875 L 275.730469 197.535156 L 277.121094 190.992188 C 277.175781 190.742188 277.164062 190.480469 277.082031 190.238281 C 277.003906 189.992188 276.863281 189.773438 276.671875 189.601562 L 271.699219 185.128906 L 278.351562 184.429688 C 278.605469 184.402344 278.851562 184.308594 279.058594 184.160156 C 279.265625 184.007812 279.429688 183.804688 279.535156 183.570312 Z M 282.253906 177.460938 " fill-opacity="1" fill-rule="evenodd"/></g><g fill="#000000" fill-opacity="1"><g transform="translate(99.17123, 163.937198)"><g><path d="M 1.015625 -12.296875 L 3.90625 -11.296875 L 0.578125 -1.6875 L -14.640625 -6.953125 L -11.421875 -16.25 L -8.53125 -15.25 L -10.59375 -9.28125 L -7.453125 -8.1875 L -5.546875 -13.71875 L -2.765625 -12.765625 L -4.671875 -7.234375 L -1.15625 -6.015625 Z M 1.015625 -12.296875 "/></g></g></g><g fill="#000000" fill-opacity="1"><g transform="translate(104.254717, 149.724377)"><g><path d="M 3.078125 -5.125 C 2.648438 -4.351562 2.179688 -3.617188 1.671875 -2.921875 C 1.160156 -2.222656 0.707031 -1.679688 0.3125 -1.296875 L -2.40625 -2.78125 C -1.976562 -3.144531 -1.503906 -3.671875 -0.984375 -4.359375 C -0.472656 -5.046875 -0.0234375 -5.742188 0.359375 -6.453125 C 0.878906 -7.378906 1.113281 -8.09375 1.0625 -8.59375 C 1.019531 -9.09375 0.679688 -9.515625 0.046875 -9.859375 C -0.335938 -10.066406 -0.675781 -10.164062 -0.96875 -10.15625 C -1.257812 -10.144531 -1.585938 -10.003906 -1.953125 -9.734375 C -2.316406 -9.472656 -2.785156 -9.023438 -3.359375 -8.390625 C -4.179688 -7.492188 -4.894531 -6.851562 -5.5 -6.46875 C -6.101562 -6.082031 -6.71875 -5.910156 -7.34375 -5.953125 C -7.96875 -6.003906 -8.707031 -6.265625 -9.5625 -6.734375 C -11.019531 -7.535156 -11.832031 -8.550781 -12 -9.78125 C -12.164062 -11.007812 -11.785156 -12.46875 -10.859375 -14.15625 C -10.441406 -14.90625 -10.015625 -15.566406 -9.578125 -16.140625 C -9.148438 -16.710938 -8.742188 -17.171875 -8.359375 -17.515625 L -5.8125 -16.125 C -6.132812 -15.8125 -6.539062 -15.335938 -7.03125 -14.703125 C -7.53125 -14.066406 -7.9375 -13.460938 -8.25 -12.890625 C -8.707031 -12.066406 -8.921875 -11.421875 -8.890625 -10.953125 C -8.859375 -10.492188 -8.554688 -10.109375 -7.984375 -9.796875 C -7.660156 -9.617188 -7.375 -9.535156 -7.125 -9.546875 C -6.882812 -9.554688 -6.601562 -9.6875 -6.28125 -9.9375 C -5.957031 -10.195312 -5.515625 -10.628906 -4.953125 -11.234375 C -4.046875 -12.222656 -3.253906 -12.90625 -2.578125 -13.28125 C -1.898438 -13.664062 -1.226562 -13.820312 -0.5625 -13.75 C 0.09375 -13.675781 0.878906 -13.382812 1.796875 -12.875 C 3.210938 -12.09375 4.039062 -11.078125 4.28125 -9.828125 C 4.519531 -8.585938 4.117188 -7.019531 3.078125 -5.125 Z M 3.078125 -5.125 "/></g></g></g><g fill="#000000" fill-opacity="1"><g transform="translate(111.873976, 136.253941)"><g><path d="M -2.515625 -17.78125 L -5.15625 -14.453125 L 5.046875 -6.375 L 2.875 -3.640625 L -7.328125 -11.71875 L -9.9375 -8.40625 L -12.359375 -10.328125 L -4.9375 -19.703125 Z M -2.515625 -17.78125 "/></g></g></g><g fill="#000000" fill-opacity="1"><g transform="translate(121.230852, 124.703016)"><g><path d="M 6.828125 -10.28125 L 8.875 -8.015625 L 1.328125 -1.1875 L -9.46875 -13.140625 L -2.171875 -19.75 L -0.125 -17.46875 L -4.8125 -13.234375 L -2.578125 -10.765625 L 1.765625 -14.6875 L 3.734375 -12.515625 L -0.609375 -8.59375 L 1.890625 -5.828125 Z M 6.828125 -10.28125 "/></g></g></g><g fill="#000000" fill-opacity="1"><g transform="translate(132.598088, 114.703796)"><g><path d="M 8.203125 -8.921875 L 9.859375 -6.34375 L 1.5 -0.96875 L -7.21875 -14.515625 L -4.25 -16.421875 L 2.8125 -5.453125 Z M 8.203125 -8.921875 "/></g></g></g><g fill="#000000" fill-opacity="1"><g transform="translate(144.786784, 107.063294)"><g><path d="M 9.5 -7.515625 L 10.734375 -4.703125 L 1.625 -0.71875 L -4.828125 -15.484375 L -1.59375 -16.890625 L 3.625 -4.9375 Z M 9.5 -7.515625 "/></g></g></g><g fill="#000000" fill-opacity="1"><g transform="translate(157.993433, 101.436019)"><g><path d="M 10.828125 -5.921875 L 11.578125 -2.953125 L 1.71875 -0.4375 L -2.25 -16.046875 L 7.296875 -18.484375 L 8.046875 -15.515625 L 1.921875 -13.953125 L 2.75 -10.734375 L 8.421875 -12.171875 L 9.140625 -9.328125 L 3.46875 -7.890625 L 4.390625 -4.28125 Z M 10.828125 -5.921875 "/></g></g></g><g fill="#000000" fill-opacity="1"><g transform="translate(181.113044, 96.813129)"><g><path d="M 11.796875 -3.609375 L 5.25 -3.8125 L 3.734375 0.125 L 0.0625 0 L 6.609375 -15.890625 L 11.34375 -15.734375 L 16.765625 0.546875 L 13.046875 0.421875 Z M 10.890625 -6.578125 L 8.984375 -12.734375 L 8.703125 -12.75 L 6.390625 -6.71875 Z M 10.890625 -6.578125 "/></g></g></g><g fill="#000000" fill-opacity="1"><g transform="translate(199.780021, 97.739944)"><g><path d="M 8.859375 2.265625 C 7.203125 1.890625 5.878906 1.34375 4.890625 0.625 C 3.898438 -0.0820312 3.234375 -1.09375 2.890625 -2.40625 C 2.546875 -3.71875 2.613281 -5.429688 3.09375 -7.546875 C 3.757812 -10.441406 4.878906 -12.363281 6.453125 -13.3125 C 8.035156 -14.257812 10.054688 -14.453125 12.515625 -13.890625 C 13.992188 -13.554688 15.175781 -13.109375 16.0625 -12.546875 L 15.375 -9.59375 C 14.425781 -10.1875 13.320312 -10.625 12.0625 -10.90625 C 11.09375 -11.125 10.28125 -11.140625 9.625 -10.953125 C 8.96875 -10.765625 8.410156 -10.332031 7.953125 -9.65625 C 7.503906 -8.976562 7.132812 -8 6.84375 -6.71875 C 6.539062 -5.375 6.441406 -4.300781 6.546875 -3.5 C 6.648438 -2.695312 6.957031 -2.082031 7.46875 -1.65625 C 7.976562 -1.226562 8.71875 -0.90625 9.6875 -0.6875 C 11.007812 -0.382812 12.28125 -0.304688 13.5 -0.453125 L 12.828125 2.484375 C 12.304688 2.554688 11.695312 2.578125 11 2.546875 C 10.300781 2.523438 9.585938 2.429688 8.859375 2.265625 Z M 8.859375 2.265625 "/></g></g></g><g fill="#000000" fill-opacity="1"><g transform="translate(215.255767, 101.310929)"><g><path d="M 12.296875 1.0625 L 6.296875 -1.578125 L 3.421875 1.5 L 0.0625 0.03125 L 12.0625 -12.28125 L 16.390625 -10.375 L 15.359375 6.765625 L 11.9375 5.265625 Z M 12.546875 -2.03125 L 13.078125 -8.453125 L 12.828125 -8.5625 L 8.4375 -3.84375 Z M 12.546875 -2.03125 "/></g></g></g><g fill="#000000" fill-opacity="1"><g transform="translate(232.19478, 108.992334)"><g><path d="M 15.296875 -8.875 C 16.691406 -7.882812 17.722656 -6.878906 18.390625 -5.859375 C 19.054688 -4.847656 19.304688 -3.679688 19.140625 -2.359375 C 18.972656 -1.046875 18.265625 0.488281 17.015625 2.25 C 15.304688 4.644531 13.554688 5.945312 11.765625 6.15625 C 9.972656 6.363281 8.035156 5.726562 5.953125 4.25 L 1.453125 1.03125 L 10.796875 -12.09375 Z M 7.546875 1.6875 C 8.390625 2.28125 9.15625 2.632812 9.84375 2.75 C 10.53125 2.875 11.21875 2.726562 11.90625 2.3125 C 12.59375 1.90625 13.304688 1.179688 14.046875 0.140625 C 14.828125 -0.953125 15.300781 -1.894531 15.46875 -2.6875 C 15.632812 -3.476562 15.539062 -4.171875 15.1875 -4.765625 C 14.84375 -5.367188 14.253906 -5.96875 13.421875 -6.5625 L 11.953125 -7.625 L 6.078125 0.625 Z M 7.546875 1.6875 "/></g></g></g><g fill="#000000" fill-opacity="1"><g transform="translate(247.026019, 119.981934)"><g><path d="M 10.5 6.484375 L 8.296875 8.609375 L 1.234375 1.28125 L 12.84375 -9.890625 L 19.671875 -2.796875 L 17.453125 -0.671875 L 13.078125 -5.21875 L 10.6875 -2.90625 L 14.734375 1.296875 L 12.625 3.328125 L 8.578125 -0.875 L 5.890625 1.703125 Z M 10.5 6.484375 "/></g></g></g><g fill="#000000" fill-opacity="1"><g transform="translate(257.469134, 130.541685)"><g><path d="M 14.59375 -7.078125 L 17.640625 -2.21875 L 11.375 4.875 L 11.453125 4.984375 L 20.625 2.515625 L 23.578125 7.21875 L 9.9375 15.796875 L 8.09375 12.859375 L 18.8125 6.109375 L 18.734375 6 L 8.9375 8.484375 L 7.0625 5.5 L 13.578125 -2.21875 L 13.5 -2.328125 L 2.78125 4.421875 L 0.953125 1.5 Z M 14.59375 -7.078125 "/></g></g></g><g fill="#000000" fill-opacity="1"><g transform="translate(268.862761, 149.503255)"><g><path d="M 8 3.421875 L 15.171875 -5.390625 L 16.578125 -1.5 L 11.703125 3.9375 L 11.75 4.078125 L 19 5.25 L 20.34375 8.984375 L 9.28125 6.71875 L 3.203125 8.90625 L 2 5.578125 Z M 8 3.421875 "/></g></g></g><g fill="#000000" fill-opacity="1"><g transform="translate(91.099117, 228.110142)"><g><path d="M 3.421875 7.46875 C 2.734375 6.0625 2.375 4.804688 2.34375 3.703125 C 2.320312 2.597656 2.707031 1.554688 3.5 0.578125 C 4.300781 -0.390625 5.609375 -1.320312 7.421875 -2.21875 C 9.242188 -3.113281 10.785156 -3.578125 12.046875 -3.609375 C 13.304688 -3.648438 14.363281 -3.320312 15.21875 -2.625 C 16.082031 -1.925781 16.859375 -0.875 17.546875 0.53125 C 18.242188 1.9375 18.601562 3.191406 18.625 4.296875 C 18.65625 5.410156 18.269531 6.453125 17.46875 7.421875 C 16.675781 8.390625 15.367188 9.320312 13.546875 10.21875 C 11.734375 11.113281 10.195312 11.582031 8.9375 11.625 C 7.675781 11.664062 6.613281 11.332031 5.75 10.625 C 4.894531 9.925781 4.117188 8.875 3.421875 7.46875 Z M 5.9375 6.234375 C 6.351562 7.078125 6.816406 7.648438 7.328125 7.953125 C 7.835938 8.253906 8.453125 8.328125 9.171875 8.171875 C 9.890625 8.015625 10.832031 7.648438 12 7.078125 C 13.175781 6.503906 14.046875 5.976562 14.609375 5.5 C 15.179688 5.019531 15.507812 4.484375 15.59375 3.890625 C 15.675781 3.296875 15.507812 2.578125 15.09375 1.734375 C 14.6875 0.898438 14.222656 0.335938 13.703125 0.046875 C 13.179688 -0.234375 12.554688 -0.300781 11.828125 -0.15625 C 11.097656 -0.0078125 10.144531 0.347656 8.96875 0.921875 C 7.800781 1.492188 6.9375 2.023438 6.375 2.515625 C 5.820312 3.003906 5.503906 3.535156 5.421875 4.109375 C 5.347656 4.679688 5.519531 5.390625 5.9375 6.234375 Z M 5.9375 6.234375 "/></g></g></g><g fill="#000000" fill-opacity="1"><g transform="translate(103.166033, 250.23294)"><g><path d="M 12.765625 -8.609375 L 16.0625 -4.71875 L 10.84375 6.015625 L 10.9375 6.125 L 19.265625 -0.953125 L 21.390625 1.546875 L 9.734375 11.453125 L 6.75 7.9375 L 12.1875 -3.609375 L 12.09375 -3.71875 L 3.234375 3.8125 L 1.109375 1.296875 Z M 12.765625 -8.609375 "/></g></g></g><g fill="#000000" fill-opacity="1"><g transform="translate(120.405967, 268.626349)"><g><path d="M 10.640625 4.359375 L 8.890625 6.6875 L 1.359375 1.03125 L 10.546875 -11.1875 L 13.21875 -9.1875 L 5.78125 0.703125 Z M 10.640625 4.359375 "/></g></g></g><g fill="#000000" fill-opacity="1"><g transform="translate(136.639437, 279.728054)"><g><path d="M 8.53125 -12.8125 L 11.5 -11.28125 L 4.484375 2.3125 L 1.515625 0.78125 Z M 8.53125 -12.8125 "/></g></g></g><g fill="#000000" fill-opacity="1"><g transform="translate(150.165679, 286.342693)"><g><path d="M 5.875 -14.234375 L 10.78125 -12.8125 L 12.359375 -0.96875 L 12.5 -0.9375 L 15.53125 -11.453125 L 18.671875 -10.53125 L 14.4375 4.171875 L 10.015625 2.890625 L 8.15625 -9.75 L 8.015625 -9.78125 L 4.796875 1.390625 L 1.640625 0.46875 Z M 5.875 -14.234375 "/></g></g></g><g fill="#000000" fill-opacity="1"><g transform="translate(174.731799, 292.17051)"><g><path d="M 11.484375 -2.28125 L 11.328125 0.625 L 1.703125 0.09375 L 2.546875 -15.1875 L 11.859375 -14.671875 L 11.703125 -11.75 L 5.734375 -12.078125 L 5.5625 -8.9375 L 11.09375 -8.640625 L 10.9375 -5.84375 L 5.40625 -6.140625 L 5.203125 -2.625 Z M 11.484375 -2.28125 "/></g></g></g><g fill="#000000" fill-opacity="1"><g transform="translate(195.128273, 292.348634)"><g/></g></g><g fill="#000000" fill-opacity="1"><g transform="translate(208.750007, 290.454581)"><g><path d="M 8.40625 -2.21875 C 6.84375 -1.769531 5.488281 -1.609375 4.34375 -1.734375 C 3.195312 -1.867188 2.175781 -2.398438 1.28125 -3.328125 C 0.394531 -4.265625 -0.332031 -5.722656 -0.90625 -7.703125 C -1.6875 -10.410156 -1.640625 -12.519531 -0.765625 -14.03125 C 0.0976562 -15.550781 1.679688 -16.648438 3.984375 -17.328125 C 5.359375 -17.722656 6.550781 -17.890625 7.5625 -17.828125 L 8.359375 -15.0625 C 7.285156 -15.101562 6.160156 -14.957031 4.984375 -14.625 C 4.085938 -14.351562 3.40625 -13.988281 2.9375 -13.53125 C 2.476562 -13.070312 2.210938 -12.457031 2.140625 -11.6875 C 2.078125 -10.925781 2.222656 -9.941406 2.578125 -8.734375 C 2.941406 -7.472656 3.351562 -6.535156 3.8125 -5.921875 C 4.28125 -5.304688 4.820312 -4.9375 5.4375 -4.8125 C 6.050781 -4.695312 6.816406 -4.773438 7.734375 -5.046875 C 8.960938 -5.398438 10.046875 -5.925781 10.984375 -6.625 L 11.78125 -3.875 C 11.394531 -3.550781 10.898438 -3.242188 10.296875 -2.953125 C 9.703125 -2.660156 9.070312 -2.414062 8.40625 -2.21875 Z M 8.40625 -2.21875 "/></g></g></g><g fill="#000000" fill-opacity="1"><g transform="translate(229.237847, 283.527106)"><g><path d="M 8.46875 -7.765625 L 9.828125 -5.203125 L 1.5 -0.796875 L -5.640625 -14.328125 L -2.671875 -15.890625 L 3.109375 -4.921875 Z M 8.46875 -7.765625 "/></g></g></g><g fill="#000000" fill-opacity="1"><g transform="translate(246.699138, 273.52201)"><g><path d="M 6 -10.0625 L 1.265625 -6.046875 L 2.703125 -2.296875 L 0.046875 -0.046875 L -5.515625 -15.390625 L -2.078125 -18.296875 L 12.140625 -10.296875 L 9.4375 -8.015625 Z M 3.453125 -11.546875 L -1.8125 -14.6875 L -2.015625 -14.515625 L 0.203125 -8.78125 Z M 3.453125 -11.546875 "/></g></g></g><g fill="#000000" fill-opacity="1"><g transform="translate(264.611505, 256.827169)"><g><path d="M 3.5625 -4.40625 C 3.070312 -3.738281 2.535156 -3.113281 1.953125 -2.53125 C 1.378906 -1.945312 0.882812 -1.492188 0.46875 -1.171875 L -1.875 -2.921875 C -1.445312 -3.210938 -0.9375 -3.644531 -0.34375 -4.21875 C 0.238281 -4.800781 0.753906 -5.394531 1.203125 -6 C 1.816406 -6.8125 2.132812 -7.453125 2.15625 -7.921875 C 2.175781 -8.398438 1.910156 -8.847656 1.359375 -9.265625 C 1.023438 -9.515625 0.71875 -9.648438 0.4375 -9.671875 C 0.164062 -9.703125 -0.15625 -9.613281 -0.53125 -9.40625 C -0.914062 -9.207031 -1.414062 -8.84375 -2.03125 -8.3125 C -2.914062 -7.59375 -3.664062 -7.09375 -4.28125 -6.8125 C -4.90625 -6.539062 -5.507812 -6.46875 -6.09375 -6.59375 C -6.6875 -6.71875 -7.351562 -7.054688 -8.09375 -7.609375 C -9.351562 -8.546875 -9.976562 -9.609375 -9.96875 -10.796875 C -9.957031 -11.984375 -9.40625 -13.3125 -8.3125 -14.78125 C -7.820312 -15.425781 -7.332031 -15.984375 -6.84375 -16.453125 C -6.363281 -16.929688 -5.921875 -17.300781 -5.515625 -17.5625 L -3.3125 -15.921875 C -3.65625 -15.679688 -4.097656 -15.296875 -4.640625 -14.765625 C -5.191406 -14.234375 -5.648438 -13.722656 -6.015625 -13.234375 C -6.554688 -12.515625 -6.84375 -11.929688 -6.875 -11.484375 C -6.914062 -11.046875 -6.691406 -10.640625 -6.203125 -10.265625 C -5.910156 -10.054688 -5.648438 -9.941406 -5.421875 -9.921875 C -5.191406 -9.910156 -4.90625 -10.003906 -4.5625 -10.203125 C -4.226562 -10.398438 -3.757812 -10.738281 -3.15625 -11.21875 C -2.164062 -12.03125 -1.328125 -12.566406 -0.640625 -12.828125 C 0.0351562 -13.097656 0.679688 -13.15625 1.296875 -13 C 1.910156 -12.84375 2.613281 -12.46875 3.40625 -11.875 C 4.644531 -10.945312 5.289062 -9.878906 5.34375 -8.671875 C 5.394531 -7.472656 4.800781 -6.050781 3.5625 -4.40625 Z M 3.5625 -4.40625 "/></g></g></g><g fill="#000000" fill-opacity="1"><g transform="translate(276.573993, 239.436163)"><g><path d="M 2.59375 -5.03125 C 2.25 -4.28125 1.851562 -3.5625 1.40625 -2.875 C 0.96875 -2.1875 0.570312 -1.644531 0.21875 -1.25 L -2.4375 -2.5 C -2.070312 -2.851562 -1.660156 -3.375 -1.203125 -4.0625 C -0.753906 -4.757812 -0.367188 -5.453125 -0.046875 -6.140625 C 0.378906 -7.054688 0.554688 -7.742188 0.484375 -8.203125 C 0.410156 -8.671875 0.0625 -9.050781 -0.5625 -9.34375 C -0.9375 -9.519531 -1.257812 -9.59375 -1.53125 -9.5625 C -1.8125 -9.53125 -2.113281 -9.375 -2.4375 -9.09375 C -2.769531 -8.820312 -3.191406 -8.367188 -3.703125 -7.734375 C -4.421875 -6.835938 -5.050781 -6.1875 -5.59375 -5.78125 C -6.144531 -5.382812 -6.722656 -5.191406 -7.328125 -5.203125 C -7.929688 -5.210938 -8.648438 -5.410156 -9.484375 -5.796875 C -10.898438 -6.460938 -11.726562 -7.367188 -11.96875 -8.515625 C -12.207031 -9.671875 -11.941406 -11.082031 -11.171875 -12.75 C -10.828125 -13.488281 -10.460938 -14.140625 -10.078125 -14.703125 C -9.691406 -15.265625 -9.332031 -15.71875 -9 -16.0625 L -6.515625 -14.90625 C -6.796875 -14.601562 -7.144531 -14.132812 -7.5625 -13.5 C -7.988281 -12.863281 -8.332031 -12.269531 -8.59375 -11.71875 C -8.976562 -10.90625 -9.140625 -10.273438 -9.078125 -9.828125 C -9.023438 -9.390625 -8.722656 -9.039062 -8.171875 -8.78125 C -7.847656 -8.632812 -7.570312 -8.578125 -7.34375 -8.609375 C -7.113281 -8.640625 -6.851562 -8.785156 -6.5625 -9.046875 C -6.28125 -9.304688 -5.882812 -9.738281 -5.375 -10.34375 C -4.582031 -11.320312 -3.878906 -12.015625 -3.265625 -12.421875 C -2.648438 -12.828125 -2.023438 -13.015625 -1.390625 -12.984375 C -0.753906 -12.953125 0.0078125 -12.726562 0.90625 -12.3125 C 2.3125 -11.65625 3.160156 -10.742188 3.453125 -9.578125 C 3.753906 -8.410156 3.46875 -6.894531 2.59375 -5.03125 Z M 2.59375 -5.03125 "/></g></g></g></svg>